<?xml version="1.0" encoding="UTF-8" standalone="no"?>
<svg
   version="1.1"
   id="svg1"
   width="469.90009"
   height="316.30585"
   viewBox="286.17 356.81 469.90 316.31"
   xmlns="http://www.w3.org/2000/svg">
  <path
     style="opacity:1;fill:#ff3b3f;fill-opacity:1"
     d="m 401.40962,449.73308 -112.54518,-0.0693 c 0,0 -4.21141,-0.38286 -2.10571,-4.21141 2.10571,-3.82855 26.03418,-70.4454 26.03418,-70.4454 0,0 5.84416,-18.19837 26.41886,-18.19837 20.57469,0 413.48205,0.0127 413.48205,0.0127 0,0 4.59427,-0.19143 3.06284,4.21141 -1.53142,4.40284 -27.18273,71.01969 -27.18273,71.01969 0,0 -8.03997,18.75992 -26.99131,18.18563 -18.95135,-0.57428 -25.84274,-0.95714 -25.84274,-0.95714 0,0 -5.74284,0 -1.34,3.82856 4.40284,3.82855 20.29134,16.84564 20.29134,16.84564 0,0 24.8856,22.58847 -0.95714,40.39125 -25.84274,17.80278 -62.97972,40.96553 -62.97972,40.96553 0,0 -9.76281,2.48856 -13.01709,14.93137 -3.25427,12.4428 -32.44131,82.94259 -32.44131,82.94259 0,0 -6.49727,21.11614 -25.71837,23.82333 l -92.11108,-0.1407 c 0,0 -4.40284,0.76571 -1.34,-5.93426 3.06285,-6.69997 49.38836,-127.29944 49.38836,-127.29944 0,0 1.33999,-6.8914 8.80567,-6.50854 7.46568,0.38285 19.52563,0 19.52563,0 0,0 5.35998,0.38285 3.63713,4.78569 -1.72285,4.40284 -18.95135,51.1112 -18.95135,51.1112 0,0 -3.25427,6.69998 3.63713,2.48857 6.8914,-4.21141 150.84505,-96.67101 150.84505,-96.67101 0,0 4.97712,-3.06284 0.57428,-7.08282 -4.40284,-4.01998 -86.3339,-75.99681 -86.3339,-75.99681 0,0 -3.06285,-4.59427 -4.59427,0.57428 -1.53142,5.16855 -11.10281,30.81987 -11.10281,30.81987 0,0 -2.1057,7.08282 -8.03996,6.8914 -5.93426,-0.19143 -70.63683,0 -70.63683,0 0,0 -5.93426,-0.19143 -8.42282,6.31711 -2.48856,6.50854 -87.6739,214.59048 -87.6739,214.59048 0,0 -2.29713,4.59427 -7.46568,0.38286 -5.16855,-4.21141 -48.04836,-39.43411 -48.04836,-39.43411 0,0 -17.2285,-11.48567 -4.97712,-41.73125 12.25137,-30.24558 55.11686,-140.4386 55.11686,-140.4386 z"
     id="path1" />
</svg>
